<svg version="1.1" xmlns="http://www.w3.org/2000/svg" xmlns:xlink="http://www.w3.org/1999/xlink" width="507.50751" height="394.89489" viewBox="0,0,507.50751,394.89489"><g transform="translate(13.75376,17.44745)"><g data-paper-data="{&quot;isPaintingLayer&quot;:true}" fill-rule="nonzero" stroke="none" stroke-linecap="butt" stroke-linejoin="miter" stroke-miterlimit="10" stroke-dasharray="" stroke-dashoffset="0" style="mix-blend-mode: normal"><path d="M6.24624,377.44745c-11.04569,0 -20,-8.95431 -20,-20v-354.89489c0,-11.04569 8.95431,-20 20,-20h467.50751c11.04569,0 20,8.95431 20,20v354.89489c0,11.04569 -8.95431,20 -20,20z" fill="#4a33ff" stroke-width="0"/><text transform="translate(211.84001,186) scale(0.5,0.5)" font-size="40" xml:space="preserve" fill="#000000" fill-rule="nonzero" stroke="none" stroke-width="1" stroke-linecap="butt" stroke-linejoin="miter" stroke-miterlimit="10" stroke-dasharray="" stroke-dashoffset="0" font-family="Sans Serif" font-weight="normal" text-anchor="start" style="mix-blend-mode: normal"><tspan x="0" dy="0">Finish</tspan></text><g><path d="M193.18318,347.9259c-11.04569,0 -20,-8.95431 -20,-20v-5.04505c0,-11.04569 8.95431,-20 20,-20h93.63364c11.0457,0 20,8.95431 20,20v5.04505c0,11.04569 -8.9543,20 -20,20z" fill="#3382ff" stroke-width="0"/><text transform="translate(196.41001,331.40338) scale(0.5,0.5)" font-size="40" xml:space="preserve" fill="#000000" fill-rule="nonzero" stroke="none" stroke-width="1" stroke-linecap="butt" stroke-linejoin="miter" stroke-miterlimit="10" stroke-dasharray="" stroke-dashoffset="0" font-family="Sans Serif" font-weight="normal" text-anchor="start" style="mix-blend-mode: normal"><tspan x="0" dy="0">Continue</tspan></text></g></g></g></svg>