<svg version="1.1" xmlns="http://www.w3.org/2000/svg" xmlns:xlink="http://www.w3.org/1999/xlink" width="44.20479" height="67.35631" viewBox="0,0,44.20479,67.35631"><g transform="translate(-217.89762,-146.32185)"><g data-paper-data="{&quot;isPaintingLayer&quot;:true}" fill-rule="nonzero" stroke="#000000" stroke-width="0.5" stroke-linecap="round" stroke-linejoin="miter" stroke-miterlimit="10" stroke-dasharray="" stroke-dashoffset="0" style="mix-blend-mode: normal"><g><path d="M240.23563,180.06309h21.39879c0,0 0.64549,11.6086 -5.32074,21.70673c-7.62554,12.90662 -16.30844,11.49699 -16.30844,11.49699" fill="#00c107"/><path d="M240.10179,213.37018c0,0 -8.6829,1.40963 -16.30844,-11.49699c-5.96622,-10.09813 -5.32074,-21.70672 -5.32074,-21.70672h21.30746" data-paper-data="{&quot;index&quot;:null}" fill="#f8d900"/><path d="M239.78006,179.97792h-21.39879c0,0 -0.64549,-11.6086 5.32074,-21.70673c7.62554,-12.90662 16.30844,-11.49699 16.30844,-11.49699" fill="#c20000"/><path d="M240.19828,146.61715c0,0 8.6829,-1.40963 16.30844,11.49699c5.96621,10.09813 5.32074,21.70673 5.32074,21.70673h-21.68208" data-paper-data="{&quot;index&quot;:null}" fill="#006bff"/><path d="M218.14763,180.01694h43.70479" fill="none"/><path d="M240.01563,146.7998c0,0 8.6829,-1.40963 16.30844,11.49699c5.96621,10.09813 5.32074,21.70673 5.32074,21.70673" data-paper-data="{&quot;index&quot;:null}" fill="none"/><path d="M239.91913,213.27884c0,0 -8.6829,1.40963 -16.30844,-11.49699c-5.96622,-10.09813 -5.32074,-21.70672 -5.32074,-21.70672" data-paper-data="{&quot;index&quot;:null}" fill="none"/><path d="M240.01563,146.7998c0,0 8.6829,-1.40963 16.30844,11.49699c5.96621,10.09813 5.32074,21.70673 5.32074,21.70673" data-paper-data="{&quot;index&quot;:null}" fill="none"/><path d="M240.00002,146.60573v66.82243" fill="none"/></g></g></g></svg>