<svg version="1.1" xmlns="http://www.w3.org/2000/svg" xmlns:xlink="http://www.w3.org/1999/xlink" width="507.50751" height="394.89489" viewBox="0,0,507.50751,394.89489"><g transform="translate(13.75375,17.44744)"><g data-paper-data="{&quot;isPaintingLayer&quot;:true}" fill-rule="nonzero" stroke="none" stroke-linecap="butt" stroke-linejoin="miter" stroke-miterlimit="10" stroke-dasharray="" stroke-dashoffset="0" style="mix-blend-mode: normal"><path d="M6.24625,377.44745c-11.04569,0 -20,-8.95431 -20,-20v-354.89489c0,-11.04569 8.95431,-20 20,-20h467.50751c11.04569,0 20,8.95431 20,20v354.89489c0,11.04569 -8.95431,20 -20,20z" fill="#ff7533" stroke-width="0"/><text transform="translate(196.23002,186) scale(0.5,0.5)" font-size="40" xml:space="preserve" fill="#000000" fill-rule="nonzero" stroke="none" stroke-width="1" stroke-linecap="butt" stroke-linejoin="miter" stroke-miterlimit="10" stroke-dasharray="" stroke-dashoffset="0" font-family="Sans Serif" font-weight="normal" text-anchor="start" style="mix-blend-mode: normal"><tspan x="0" dy="0">3rd Place</tspan></text><g><g><path d="M353.84385,346.66666c-11.04569,0 -20,-8.95431 -20,-20v-5.04505c0,-11.04569 8.95431,-20 20,-20h93.63364c11.0457,0 20,8.95431 20,20v5.04505c0,11.04569 -8.9543,20 -20,20z" fill="#3382ff" stroke-width="0"/><text transform="translate(370.68068,330.14414) scale(0.5,0.5)" font-size="40" xml:space="preserve" fill="#000000" fill-rule="nonzero" stroke="none" stroke-width="1" stroke-linecap="butt" stroke-linejoin="miter" stroke-miterlimit="10" stroke-dasharray="" stroke-dashoffset="0" font-family="Sans Serif" font-weight="normal" text-anchor="start" style="mix-blend-mode: normal"><tspan x="0" dy="0">Watch</tspan></text></g><g><path d="M40.03003,345.70107c-11.04569,0 -20,-8.95431 -20,-20v-5.04505c0,-11.04569 8.95431,-20 20,-20h93.63364c11.0457,0 20,8.95431 20,20v5.04505c0,11.04569 -8.9543,20 -20,20z" fill="#3382ff" stroke-width="0"/><text transform="translate(43.25686,329.17855) scale(0.5,0.5)" font-size="40" xml:space="preserve" fill="#000000" fill-rule="nonzero" stroke="none" stroke-width="1" stroke-linecap="butt" stroke-linejoin="miter" stroke-miterlimit="10" stroke-dasharray="" stroke-dashoffset="0" font-family="Sans Serif" font-weight="normal" text-anchor="start" style="mix-blend-mode: normal"><tspan x="0" dy="0">Continue</tspan></text></g></g></g></g></svg>