<svg version="1.1" xmlns="http://www.w3.org/2000/svg" xmlns:xlink="http://www.w3.org/1999/xlink" width="488.66637" height="163.58294" viewBox="0,0,488.66637,163.58294"><g transform="translate(233.99535,-158.20853)"><g data-paper-data="{&quot;isPaintingLayer&quot;:true}" fill="none" fill-rule="nonzero" stroke-opacity="0.50196" stroke="#000000" stroke-width="5" stroke-linecap="butt" stroke-linejoin="miter" stroke-miterlimit="10" stroke-dasharray="" stroke-dashoffset="0" style="mix-blend-mode: normal"><path d="M-212.77055,319.29147c-10.34143,0 -18.7248,-1.99906 -18.7248,-4.46504v-149.65286c0,-2.46597 8.38337,-4.46504 18.7248,-4.46504h446.21678c10.34143,0 18.7248,1.99906 18.7248,4.46504v149.65286c0,2.46597 -8.38337,4.46504 -18.7248,4.46504z" data-paper-data="{&quot;index&quot;:null}"/><path d="M142.3395,311.03321c-2.20914,0 -4,-1.79086 -4,-4v-134.06642c0,-2.20914 1.79086,-4 4,-4h95.32103c2.20914,0 4,1.79086 4,4v134.06642c0,2.20914 -1.79086,4 -4,4z" data-paper-data="{&quot;index&quot;:null}"/></g></g></svg>