<svg version="1.1" xmlns="http://www.w3.org/2000/svg" xmlns:xlink="http://www.w3.org/1999/xlink" width="105.32103" height="144.06642" viewBox="0,0,105.32103,144.06642"><g transform="translate(-187.33957,-107.96679)"><g data-paper-data="{&quot;isPaintingLayer&quot;:true}" fill-rule="nonzero" stroke="#000000" stroke-linecap="butt" stroke-linejoin="miter" stroke-miterlimit="10" stroke-dasharray="" stroke-dashoffset="0" style="mix-blend-mode: normal"><path d="M192.33957,251.03321c-2.20914,0 -4,-1.79086 -4,-4v-134.06642c0,-2.20914 1.79086,-4 4,-4h95.32103c2.20914,0 4,1.79086 4,4v134.06642c0,2.20914 -1.79086,4 -4,4z" data-paper-data="{&quot;index&quot;:null}" fill="#ffffff" stroke-width="2"/><g fill="#00c107" stroke-width="2"><path d="M281.82043,229.07995v7.99016c0,0.30678 -0.03453,0.6055 -0.09993,0.89247c-0.37536,1.81965 -1.98665,3.18767 -3.91746,3.18767h-6.81888c-0.27419,0 -0.54193,-0.02759 -0.80061,-0.08014h-69.84896c-2.20914,0 -4,-1.79086 -4,-4v-7.99016c0,-2.20914 1.79086,-4 4,-4h66.64958v-15.05594c0,-2.20914 1.79086,-4 4,-4h6.81888c2.20914,0 4,1.79086 4,4v18.68042c0.01151,0.12363 0.01739,0.24889 0.01739,0.37552z" data-paper-data="{&quot;index&quot;:null}"/><path d="M198.17965,130.92005v-7.99016c0,-0.30678 0.03453,-0.6055 0.09993,-0.89247c0.37536,-1.81965 1.98665,-3.18767 3.91746,-3.18767h6.81888c0.27419,0 0.54193,0.02759 0.80061,0.08014h69.84897c2.20914,0 4,1.79086 4,4v7.99016c0,2.20914 -1.79086,4 -4,4h-66.64958v15.05594c0,2.20914 -1.79086,4 -4,4h-6.81888c-2.20914,0 -4,-1.79086 -4,-4v-18.68042c-0.01151,-0.12363 -0.01739,-0.24889 -0.01739,-0.37552z" data-paper-data="{&quot;index&quot;:null}"/></g><g><path d="M207.05207,194.66707l-2.64034,-11.39259l23.63103,7.80777l2.64034,11.3926z" fill="#ffffff" stroke-width="1.5"/><g stroke-width="1"><path d="M227.00107,207.21943c-0.84653,0 -1.53277,-0.68623 -1.53277,-1.53276v-51.37333c0,-0.84653 0.68624,-1.53276 1.53277,-1.53276h36.52636c0.84653,0 1.53277,0.68623 1.53277,1.53276v51.37333c0,0.84653 -0.68624,1.53276 -1.53277,1.53276z" data-paper-data="{&quot;index&quot;:null}" fill="#ffffff"/><g fill="#00c107"><path d="M261.28952,198.8071v3.06177c0,0.11756 -0.01323,0.23203 -0.03829,0.34199c-0.14384,0.69727 -0.76127,1.22149 -1.50114,1.22149h-2.61295c-0.10507,0 -0.20766,-0.01058 -0.30679,-0.03071h-26.76564c-0.84653,0 -1.53277,-0.68624 -1.53277,-1.53277v-3.06177c0,-0.84653 0.68624,-1.53278 1.53277,-1.53278h25.53966v-5.76932c0,-0.84653 0.68624,-1.53278 1.53277,-1.53278h2.61295c0.84653,0 1.53277,0.68625 1.53277,1.53278v7.1582c0.00441,0.04737 0.00666,0.09537 0.00666,0.1439z" data-paper-data="{&quot;index&quot;:null}"/><path d="M229.23896,161.1929v-3.06177c0,-0.11756 0.01323,-0.23203 0.03829,-0.34199c0.14384,-0.69727 0.76127,-1.22149 1.50114,-1.22149h2.61295c0.10506,0 0.20766,0.01058 0.30678,0.03071h26.76564c0.84653,0 1.53278,0.68624 1.53278,1.53277v3.06177c0,0.84653 -0.68625,1.53278 -1.53278,1.53278h-25.53965v5.76932c0,0.84653 -0.68625,1.53278 -1.53278,1.53278h-2.61295c-0.84653,0 -1.53276,-0.68625 -1.53276,-1.53278v-7.1582c-0.00441,-0.04737 -0.00666,-0.09537 -0.00666,-0.1439z" data-paper-data="{&quot;index&quot;:null}"/></g></g><path d="M204.16222,182.78895l21.92041,-5.05172l-2.14172,-9.29337l19.05848,11.9194l-11.9194,19.05848l-2.14172,-9.29336l-21.92041,5.05172z" fill="#ffffff" stroke-width="1.5"/></g></g></g></svg>