<svg version="1.1" xmlns="http://www.w3.org/2000/svg" xmlns:xlink="http://www.w3.org/1999/xlink" width="105.32103" height="144.06642" viewBox="0,0,105.32103,144.06642"><g transform="translate(-187.33959,-107.96679)"><g data-paper-data="{&quot;isPaintingLayer&quot;:true}" fill-rule="nonzero" stroke-linejoin="miter" stroke-miterlimit="10" stroke-dasharray="" stroke-dashoffset="0" style="mix-blend-mode: normal"><path d="M192.33959,251.03321c-2.20914,0 -4,-1.79086 -4,-4v-134.06642c0,-2.20914 1.79086,-4 4,-4h95.32103c2.20914,0 4,1.79086 4,4v134.06642c0,2.20914 -1.79086,4 -4,4z" data-paper-data="{&quot;index&quot;:null}" fill="#ffffff" stroke="#000000" stroke-width="2" stroke-linecap="butt"/><g fill="#000000" stroke="#000000" stroke-width="2" stroke-linecap="butt"><path d="M281.82043,229.07995v7.99016c0,0.30678 -0.03453,0.6055 -0.09993,0.89247c-0.37536,1.81965 -1.98665,3.18767 -3.91746,3.18767h-6.81888c-0.27419,0 -0.54193,-0.02759 -0.80061,-0.08014h-69.84896c-2.20914,0 -4,-1.79086 -4,-4v-7.99016c0,-2.20914 1.79086,-4 4,-4h66.64958v-15.05594c0,-2.20914 1.79086,-4 4,-4h6.81888c2.20914,0 4,1.79086 4,4v18.68042c0.01151,0.12363 0.01739,0.24889 0.01739,0.37552z" data-paper-data="{&quot;index&quot;:null}"/><path d="M198.17967,130.92005v-7.99016c0,-0.30678 0.03453,-0.6055 0.09993,-0.89247c0.37536,-1.81965 1.98665,-3.18767 3.91746,-3.18767h6.81888c0.27419,0 0.54193,0.02759 0.80061,0.08014h69.84897c2.20914,0 4,1.79086 4,4v7.99016c0,2.20914 -1.79086,4 -4,4h-66.64958v15.05594c0,2.20914 -1.79086,4 -4,4h-6.81888c-2.20914,0 -4,-1.79086 -4,-4v-18.68042c-0.01151,-0.12363 -0.01739,-0.24889 -0.01739,-0.37552z" data-paper-data="{&quot;index&quot;:null}"/></g><g stroke="#000000" stroke-width="0.5" stroke-linecap="round"><path d="M240.23562,180.06309h21.39879c0,0 0.64549,11.6086 -5.32074,21.70673c-7.62554,12.90662 -16.30844,11.49699 -16.30844,11.49699" fill="#00c107"/><path d="M240.10177,213.37018c0,0 -8.6829,1.40963 -16.30844,-11.49699c-5.96622,-10.09813 -5.32074,-21.70672 -5.32074,-21.70672h21.30746" data-paper-data="{&quot;index&quot;:null}" fill="#f8d900"/><path d="M239.78005,179.97792h-21.39879c0,0 -0.64549,-11.6086 5.32074,-21.70673c7.62554,-12.90662 16.30844,-11.49699 16.30844,-11.49699" fill="#c20000"/><path d="M240.19827,146.61715c0,0 8.6829,-1.40963 16.30844,11.49699c5.96621,10.09813 5.32074,21.70673 5.32074,21.70673h-21.68208" data-paper-data="{&quot;index&quot;:null}" fill="#006bff"/><path d="M218.14761,180.01694h43.70479" fill="none"/><path d="M240.01562,146.7998c0,0 8.6829,-1.40963 16.30844,11.49699c5.96621,10.09813 5.32074,21.70673 5.32074,21.70673" data-paper-data="{&quot;index&quot;:null}" fill="none"/><path d="M239.91911,213.27884c0,0 -8.6829,1.40963 -16.30844,-11.49699c-5.96622,-10.09813 -5.32074,-21.70672 -5.32074,-21.70672" data-paper-data="{&quot;index&quot;:null}" fill="none"/><path d="M240.01562,146.7998c0,0 8.6829,-1.40963 16.30844,11.49699c5.96621,10.09813 5.32074,21.70673 5.32074,21.70673" data-paper-data="{&quot;index&quot;:null}" fill="none"/><path d="M240.00001,146.60573v66.82243" fill="none"/></g><text transform="translate(217.83619,191.62438) scale(0.9687,0.9687)" font-size="40" xml:space="preserve" fill="#ffffff" fill-rule="nonzero" stroke="none" stroke-width="1" stroke-linecap="butt" stroke-linejoin="miter" stroke-miterlimit="10" stroke-dasharray="" stroke-dashoffset="0" font-family="Sans Serif" font-weight="normal" text-anchor="start" style="mix-blend-mode: normal"><tspan x="0" dy="0">+2</tspan></text></g></g></svg>