<svg version="1.1" xmlns="http://www.w3.org/2000/svg" xmlns:xlink="http://www.w3.org/1999/xlink" width="105.32103" height="144.06642" viewBox="0,0,105.32103,144.06642"><g transform="translate(-187.33957,-107.96679)"><g data-paper-data="{&quot;isPaintingLayer&quot;:true}" fill-rule="nonzero" stroke-linejoin="miter" stroke-miterlimit="10" stroke-dasharray="" stroke-dashoffset="0" style="mix-blend-mode: normal"><path d="M192.33957,251.03321c-2.20914,0 -4,-1.79086 -4,-4v-134.06642c0,-2.20914 1.79086,-4 4,-4h95.32103c2.20914,0 4,1.79086 4,4v134.06642c0,2.20914 -1.79086,4 -4,4z" data-paper-data="{&quot;index&quot;:null}" fill="#000000" stroke="#ffffff" stroke-width="2" stroke-linecap="butt"/><g fill="#00c107" stroke="#ffffff" stroke-width="2" stroke-linecap="butt"><path d="M281.82043,229.07995v7.99016c0,0.30678 -0.03453,0.6055 -0.09993,0.89247c-0.37536,1.81965 -1.98665,3.18767 -3.91746,3.18767h-6.81888c-0.27419,0 -0.54193,-0.02759 -0.80061,-0.08014h-69.84896c-2.20914,0 -4,-1.79086 -4,-4v-7.99016c0,-2.20914 1.79086,-4 4,-4h66.64958v-15.05594c0,-2.20914 1.79086,-4 4,-4h6.81888c2.20914,0 4,1.79086 4,4v18.68042c0.01151,0.12363 0.01739,0.24889 0.01739,0.37552z" data-paper-data="{&quot;index&quot;:null}"/><path d="M198.17965,130.92005v-7.99016c0,-0.30678 0.03453,-0.6055 0.09993,-0.89247c0.37536,-1.81965 1.98665,-3.18767 3.91746,-3.18767h6.81888c0.27419,0 0.54193,0.02759 0.80061,0.08014h69.84897c2.20914,0 4,1.79086 4,4v7.99016c0,2.20914 -1.79086,4 -4,4h-66.64958v15.05594c0,2.20914 -1.79086,4 -4,4h-6.81888c-2.20914,0 -4,-1.79086 -4,-4v-18.68042c-0.01151,-0.12363 -0.01739,-0.24889 -0.01739,-0.37552z" data-paper-data="{&quot;index&quot;:null}"/></g><g fill="none" stroke="#00c107" stroke-width="5"><g stroke-linecap="round"><path d="M248.51726,157.72026l8.09385,12.215"/><path d="M248.64188,157.66028l14.36052,2.9141"/></g><path d="M250.38835,158.56767c8.8067,4.42594 14.11217,14.20464 12.41356,24.43909c-2.09008,12.59313 -13.99317,21.10753 -26.5863,19.01745c-12.59313,-2.09008 -21.10753,-13.99317 -19.01745,-26.5863c1.31208,-7.90551 6.49134,-14.20364 13.28081,-17.27997" stroke-linecap="butt"/></g></g></g></svg>