<svg version="1.1" xmlns="http://www.w3.org/2000/svg" xmlns:xlink="http://www.w3.org/1999/xlink" width="105.32103" height="144.06642" viewBox="0,0,105.32103,144.06642"><g transform="translate(-187.33951,-107.96679)"><g data-paper-data="{&quot;isPaintingLayer&quot;:true}" fill-rule="nonzero" stroke-linejoin="miter" stroke-miterlimit="10" stroke-dasharray="" stroke-dashoffset="0" style="mix-blend-mode: normal"><path d="M192.33952,251.03321c-2.20914,0 -4,-1.79086 -4,-4v-134.06642c0,-2.20914 1.79086,-4 4,-4h95.32103c2.20914,0 4,1.79086 4,4v134.06642c0,2.20914 -1.79086,4 -4,4z" data-paper-data="{&quot;index&quot;:null}" fill="#ffffff" stroke="#000000" stroke-width="2" stroke-linecap="butt"/><g fill="#006bff" stroke="#000000" stroke-width="2" stroke-linecap="butt"><path d="M281.82043,229.07995v7.99016c0,0.30678 -0.03453,0.6055 -0.09993,0.89247c-0.37536,1.81965 -1.98665,3.18767 -3.91746,3.18767h-6.81888c-0.27419,0 -0.54193,-0.02759 -0.80061,-0.08014h-69.84896c-2.20914,0 -4,-1.79086 -4,-4v-7.99016c0,-2.20914 1.79086,-4 4,-4h66.64958v-15.05594c0,-2.20914 1.79086,-4 4,-4h6.81888c2.20914,0 4,1.79086 4,4v18.68042c0.01151,0.12363 0.01739,0.24889 0.01739,0.37552z" data-paper-data="{&quot;index&quot;:null}"/><path d="M198.1796,130.92005v-7.99016c0,-0.30678 0.03453,-0.6055 0.09993,-0.89247c0.37536,-1.81965 1.98665,-3.18767 3.91746,-3.18767h6.81888c0.27419,0 0.54193,0.02759 0.80061,0.08014h69.84897c2.20914,0 4,1.79086 4,4v7.99016c0,2.20914 -1.79086,4 -4,4h-66.64958v15.05594c0,2.20914 -1.79086,4 -4,4h-6.81888c-2.20914,0 -4,-1.79086 -4,-4v-18.68042c-0.01151,-0.12363 -0.01739,-0.24889 -0.01739,-0.37552z" data-paper-data="{&quot;index&quot;:null}"/></g><g fill="none" stroke="#006bff" stroke-width="5"><path d="M217.6726,180c0,-12.33109 9.99632,-22.32741 22.32741,-22.32741c12.33109,0 22.32741,9.99632 22.32741,22.32741c0,12.33109 -9.99632,22.32741 -22.32741,22.32741c-12.33109,0 -22.32741,-9.99632 -22.32741,-22.32741z" stroke-linecap="butt"/><path d="M254.93524,165.06477l-29.87046,29.87046" stroke-linecap="round"/></g></g></g></svg>