<svg version="1.1" xmlns="http://www.w3.org/2000/svg" xmlns:xlink="http://www.w3.org/1999/xlink" width="105.32103" height="144.06642" viewBox="0,0,105.32103,144.06642"><g transform="translate(-187.33959,-107.96679)"><g data-paper-data="{&quot;isPaintingLayer&quot;:true}" fill-rule="nonzero" stroke-linejoin="miter" stroke-miterlimit="10" stroke-dasharray="" stroke-dashoffset="0" style="mix-blend-mode: normal"><path d="M192.33959,251.03321c-2.20914,0 -4,-1.79086 -4,-4v-134.06642c0,-2.20914 1.79086,-4 4,-4h95.32103c2.20914,0 4,1.79086 4,4v134.06642c0,2.20914 -1.79086,4 -4,4z" data-paper-data="{&quot;index&quot;:null}" fill="#000000" stroke="#ffffff" stroke-width="2" stroke-linecap="butt"/><g fill="#000000" stroke="#ffffff" stroke-width="2" stroke-linecap="butt"><path d="M281.82043,229.07995v7.99016c0,0.30678 -0.03453,0.6055 -0.09993,0.89247c-0.37536,1.81965 -1.98665,3.18767 -3.91746,3.18767h-6.81888c-0.27419,0 -0.54193,-0.02759 -0.80061,-0.08014h-69.84896c-2.20914,0 -4,-1.79086 -4,-4v-7.99016c0,-2.20914 1.79086,-4 4,-4h66.64958v-15.05594c0,-2.20914 1.79086,-4 4,-4h6.81888c2.20914,0 4,1.79086 4,4v18.68042c0.01151,0.12363 0.01739,0.24889 0.01739,0.37552z" data-paper-data="{&quot;index&quot;:null}"/><path d="M198.17967,130.92005v-7.99016c0,-0.30678 0.03453,-0.6055 0.09993,-0.89247c0.37536,-1.81965 1.98665,-3.18767 3.91746,-3.18767h6.81888c0.27419,0 0.54193,0.02759 0.80061,0.08014h69.84897c2.20914,0 4,1.79086 4,4v7.99016c0,2.20914 -1.79086,4 -4,4h-66.64958v15.05594c0,2.20914 -1.79086,4 -4,4h-6.81888c-2.20914,0 -4,-1.79086 -4,-4v-18.68042c-0.01151,-0.12363 -0.01739,-0.24889 -0.01739,-0.37552z" data-paper-data="{&quot;index&quot;:null}"/></g><g stroke="#000000" stroke-width="0.5" stroke-linecap="round"><path d="M240.23563,180.06309h21.39879c0,0 0.64549,11.6086 -5.32074,21.70673c-7.62554,12.90662 -16.30844,11.49699 -16.30844,11.49699" fill="#00c107"/><path d="M240.10177,213.37018c0,0 -8.6829,1.40963 -16.30844,-11.49699c-5.96622,-10.09813 -5.32074,-21.70672 -5.32074,-21.70672h21.30746" data-paper-data="{&quot;index&quot;:null}" fill="#f8d900"/><path d="M239.78005,179.97792h-21.39879c0,0 -0.64549,-11.6086 5.32074,-21.70673c7.62554,-12.90662 16.30844,-11.49699 16.30844,-11.49699" fill="#c20000"/><path d="M240.19829,146.61715c0,0 8.6829,-1.40963 16.30844,11.49699c5.96621,10.09813 5.32074,21.70673 5.32074,21.70673h-21.68208" data-paper-data="{&quot;index&quot;:null}" fill="#006bff"/><path d="M218.14761,180.01694h43.70479" fill="none"/><path d="M240.01563,146.7998c0,0 8.6829,-1.40963 16.30844,11.49699c5.96621,10.09813 5.32074,21.70673 5.32074,21.70673" data-paper-data="{&quot;index&quot;:null}" fill="none"/><path d="M239.91911,213.27884c0,0 -8.6829,1.40963 -16.30844,-11.49699c-5.96622,-10.09813 -5.32074,-21.70672 -5.32074,-21.70672" data-paper-data="{&quot;index&quot;:null}" fill="none"/><path d="M240.01563,146.7998c0,0 8.6829,-1.40963 16.30844,11.49699c5.96621,10.09813 5.32074,21.70673 5.32074,21.70673" data-paper-data="{&quot;index&quot;:null}" fill="none"/><path d="M240.00005,213.42816v-66.82243" fill="none"/></g><g stroke-linecap="butt"><g fill="#000000" stroke="#ffffff" stroke-width="0.5"><path d="M237.77083,196.91266c-0.49313,0.16606 -1.11677,0.06029 -1.39293,-0.23623l-16.75947,-17.99521c-0.27616,-0.29653 -0.10027,-0.67152 0.39286,-0.83758l21.27788,-7.16517c0.49313,-0.16606 1.11677,-0.06029 1.39293,0.23623l16.75947,17.99521c0.27616,0.29653 0.10027,0.67152 -0.39286,0.83758z" data-paper-data="{&quot;index&quot;:null}"/><path d="M237.98775,195.90035c-0.49313,0.16606 -1.11677,0.06029 -1.39293,-0.23623l-16.75947,-17.99521c-0.27616,-0.29653 -0.10027,-0.67152 0.39286,-0.83758l21.27788,-7.16517c0.49313,-0.16606 1.11677,-0.06029 1.39293,0.23623l16.75947,17.99521c0.27616,0.29653 0.10027,0.67152 -0.39286,0.83758z" data-paper-data="{&quot;index&quot;:null}"/><path d="M238.20468,194.96034c-0.49313,0.16606 -1.11677,0.06029 -1.39293,-0.23623l-16.75947,-17.99521c-0.27616,-0.29653 -0.10027,-0.67152 0.39286,-0.83758l21.27788,-7.16517c0.49313,-0.16606 1.11677,-0.06029 1.39293,0.23623l16.75947,17.99521c0.27616,0.29653 0.10027,0.67152 -0.39286,0.83758z" data-paper-data="{&quot;index&quot;:null}"/><path d="M238.49391,193.94804c-0.49313,0.16606 -1.11677,0.06029 -1.39293,-0.23623l-16.75947,-17.99521c-0.27616,-0.29653 -0.10027,-0.67152 0.39286,-0.83758l21.27788,-7.16517c0.49313,-0.16606 1.11677,-0.06029 1.39293,0.23623l16.75947,17.99521c0.27616,0.29653 0.10027,0.67152 -0.39286,0.83758z" data-paper-data="{&quot;index&quot;:null}"/><path d="M238.71083,192.93572c-0.49313,0.16606 -1.11677,0.06029 -1.39293,-0.23623l-16.75947,-17.99521c-0.27616,-0.29653 -0.10027,-0.67152 0.39286,-0.83758l21.27788,-7.16517c0.49313,-0.16606 1.11677,-0.06029 1.39293,0.23623l16.75947,17.99521c0.27616,0.29653 0.10027,0.67152 -0.39286,0.83758z" data-paper-data="{&quot;index&quot;:null}"/></g><g fill="#006bff"><g stroke="#000000" stroke-width="0.5"><path d="M256.33678,183.68955l1.07861,1.13219c0.04141,0.04347 0.07426,0.08831 0.09883,0.13374c0.16432,0.28519 -0.00011,0.59646 -0.41843,0.73715l-1.47734,0.4969c-0.0594,0.01998 -0.12114,0.03558 -0.18427,0.04698l-15.13311,5.08992c-0.47862,0.16098 -1.10837,0.03772 -1.40659,-0.27531l-1.07861,-1.13219c-0.29822,-0.31303 -0.15197,-0.69729 0.32665,-0.85827l14.43995,-4.85678l-2.03243,-2.1334c-0.29822,-0.31303 -0.15197,-0.69729 0.32665,-0.85828l1.47734,-0.49689c0.47862,-0.16098 1.10837,-0.03772 1.40659,0.27531l2.52171,2.64698c0.01918,0.01668 0.03737,0.034 0.05446,0.05194z" data-paper-data="{&quot;index&quot;:null}"/><path d="M224.96479,175.8754l-1.07861,-1.13219c-0.04141,-0.04347 -0.07426,-0.08831 -0.09883,-0.13374c-0.16432,-0.28519 0.00011,-0.59646 0.41843,-0.73715l1.47734,-0.4969c0.0594,-0.01998 0.12114,-0.03558 0.18427,-0.04699l15.13312,-5.08992c0.47862,-0.16098 1.10837,-0.03772 1.40659,0.27531l1.07861,1.13219c0.29822,0.31303 0.15197,0.69729 -0.32665,0.85827l-14.43995,4.85678l2.03243,2.1334c0.29822,0.31303 0.15197,0.69729 -0.32665,0.85828l-1.47734,0.4969c-0.47862,0.16098 -1.10837,0.03772 -1.40659,-0.27531l-2.52171,-2.64698c-0.01918,-0.01668 -0.03737,-0.034 -0.05446,-0.05194z" data-paper-data="{&quot;index&quot;:null}"/></g><text transform="translate(236.74,183.729) rotate(-18.58991) scale(0.26787,0.20782) skewX(19.90697)" font-size="40" xml:space="preserve" fill="#006bff" fill-rule="nonzero" stroke="none" stroke-width="1" stroke-linecap="butt" stroke-linejoin="miter" stroke-miterlimit="10" stroke-dasharray="" stroke-dashoffset="0" font-family="Sans Serif" font-weight="normal" text-anchor="start" style="mix-blend-mode: normal"><tspan x="0" dy="0">+1</tspan></text></g><path d="M237.54498,178.14112v-9.12592h-3.60386l6.00643,-6.00643l6.00643,6.00643h-3.60386v9.12592z" fill="#000000" stroke="#ffffff" stroke-width="0.5"/></g></g></g></svg>