<svg version="1.1" xmlns="http://www.w3.org/2000/svg" xmlns:xlink="http://www.w3.org/1999/xlink" width="105.32103" height="144.06642" viewBox="0,0,105.32103,144.06642"><g transform="translate(-187.33957,-107.96679)"><g data-paper-data="{&quot;isPaintingLayer&quot;:true}" fill-rule="nonzero" stroke="#ffffff" stroke-linecap="butt" stroke-linejoin="miter" stroke-miterlimit="10" stroke-dasharray="" stroke-dashoffset="0" style="mix-blend-mode: normal"><path d="M192.33957,251.03321c-2.20914,0 -4,-1.79086 -4,-4v-134.06642c0,-2.20914 1.79086,-4 4,-4h95.32103c2.20914,0 4,1.79086 4,4v134.06642c0,2.20914 -1.79086,4 -4,4z" data-paper-data="{&quot;index&quot;:null}" fill="#000000" stroke-width="2"/><g fill="#00c107" stroke-width="2"><path d="M281.82043,229.07995v7.99016c0,0.30678 -0.03453,0.6055 -0.09993,0.89247c-0.37536,1.81965 -1.98665,3.18767 -3.91746,3.18767h-6.81888c-0.27419,0 -0.54193,-0.02759 -0.80061,-0.08014h-69.84896c-2.20914,0 -4,-1.79086 -4,-4v-7.99016c0,-2.20914 1.79086,-4 4,-4h66.64958v-15.05594c0,-2.20914 1.79086,-4 4,-4h6.81888c2.20914,0 4,1.79086 4,4v18.68042c0.01151,0.12363 0.01739,0.24889 0.01739,0.37552z" data-paper-data="{&quot;index&quot;:null}"/><path d="M198.17965,130.92005v-7.99016c0,-0.30678 0.03453,-0.6055 0.09993,-0.89247c0.37536,-1.81965 1.98665,-3.18767 3.91746,-3.18767h6.81888c0.27419,0 0.54193,0.02759 0.80061,0.08014h69.84897c2.20914,0 4,1.79086 4,4v7.99016c0,2.20914 -1.79086,4 -4,4h-66.64958v15.05594c0,2.20914 -1.79086,4 -4,4h-6.81888c-2.20914,0 -4,-1.79086 -4,-4v-18.68042c-0.01151,-0.12363 -0.01739,-0.24889 -0.01739,-0.37552z" data-paper-data="{&quot;index&quot;:null}"/></g><path d="M253.68111,167.53052c0,0 -2.8528,2.85521 -6.41311,6.418c0.64993,0.1489 1.26718,0.47647 1.77337,0.98265c1.43442,1.43442 1.43421,3.75967 -0.0002,5.19409c-4.591,4.591 -17.51376,17.52449 -17.51376,17.52449c0,0 1.7463,0.01042 9.75418,0.01015c2.02867,0.00006 3.67289,1.64426 3.67268,3.67267c-0.00073,2.02893 -1.64447,3.67321 -3.67294,3.67294c-6.49299,0.00047 -18.6353,-0.00021 -18.6353,-0.00021c-2.02847,-0.00027 -3.67289,-1.64469 -3.67268,-3.67267c0,0 -0.00021,-10.47812 -0.00026,-18.4862c0,-2.02967 1.64422,-3.67389 3.67294,-3.67294c2.02851,-0.00021 3.6732,1.64448 3.6722,3.6722c0.00095,6.49451 0.00073,9.6238 0.00073,9.6238c0,0 2.8528,-2.85521 6.41311,-6.418c-0.64993,-0.1489 -1.26718,-0.47647 -1.77337,-0.98265c-1.43442,-1.43442 -1.43421,-3.75967 0.0002,-5.19409c4.591,-4.591 17.51376,-17.52449 17.51376,-17.52449c0,0 -1.7463,-0.01042 -9.75418,-0.01015c-2.02867,-0.00006 -3.67289,-1.64426 -3.67268,-3.67267c0.00073,-2.02893 1.64448,-3.67321 3.67294,-3.67294c6.49299,-0.00047 18.6353,0.00021 18.6353,0.00021c2.02846,0.00027 3.67289,1.64469 3.67268,3.67267c0,0 0.00021,10.47812 0.00027,18.4862c0,2.02967 -1.64422,3.67389 -3.67295,3.67294c-2.02851,0.00021 -3.6732,-1.64447 -3.6722,-3.6722c-0.00095,-6.49451 -0.00073,-9.6238 -0.00073,-9.6238z" fill="#00c107" stroke-width="1.15823"/></g></g></svg>